<svg width="102" height="68" fill="none" xmlns="http://www.w3.org/2000/svg"><g clip-path="url(#clip0_218_9)" fill="#F6F6F6"><path d="M50.95 68c-.23-.513-.438-.919-.6-1.344-.49-1.309-1.01-2.617-1.422-3.945-.318-1.019-.502-2.08-.732-3.124-.518-2.35-.63-4.737-.547-7.13.05-.934.149-1.864.299-2.787.11-.843.264-1.68.46-2.508.284-1.142.614-2.275.974-3.396.241-.748.577-1.467.848-2.205a.651.651 0 00-.04-.42c-1.056-2.665-2.495-5.109-4.408-7.248-1.022-1.142-2.16-2.18-3.251-3.26a6.155 6.155 0 00-.525-.405c-.042.533-.125.974-.101 1.409.11 1.963.793 3.752 1.67 5.483.859 1.69 1.94 3.236 3.128 4.711.634.786.618.787.01 1.612-1.592 2.156-3.202 4.3-4.749 6.486-.674.95-1.242 1.979-1.555 3.125-.2.73.11 1.182.861 1.184.276 0 .547-.026.865-.042-.948 1.393-3.123 2.18-4.706 1.907a37.55 37.55 0 013.8-7.325c1.545-2.305 3.392-4.348 5.419-6.265-.617-.698-1.204-1.35-1.78-2.02-1.724-2.026-3.318-4.144-4.39-6.596-.638-1.456-1.003-2.979-.888-4.587 0-.055 0-.11.01-.164.099-.682.08-.716-.51-1.068-.621-.37-1.237-.745-1.861-1.116-.11-.067-.235-.12-.465-.239.094.578.126 1.073.26 1.539.451 1.565.853 3.151 1.432 4.67a22.448 22.448 0 004.123 6.895c.6.683.594.684-.024 1.454-1.028 1.256-2.215 2.324-3.667 3.074a8.94 8.94 0 01-3.064.938.422.422 0 01-.293-.087c.42-.16.844-.315 1.265-.479 1.86-.723 3.379-1.853 4.367-3.634.211-.38.245-.654-.03-1.057-1.152-1.699-2.298-3.405-3.35-5.168a28.104 28.104 0 01-2.839-6.652c-.212-.74-.343-1.505-.487-2.264-.061-.317-.193-.523-.504-.661a48.025 48.025 0 00-7.493-2.67c-1.539-.398-3.08-.787-4.63-1.132a25.552 25.552 0 00-3.26-.487c.48.353.939.738 1.442 1.053a12.141 12.141 0 004.684 1.714c1.338.2 2.678.4 4.032.675-.39.073-.781.207-1.172.209-1.214 0-2.441.063-3.64-.09-1.478-.19-2.935-.546-4.393-.873-1.561-.352-3.032-.965-4.463-1.67a18.523 18.523 0 01-4.225-2.843 13.77 13.77 0 01-3.347-4.471c-.138-.297-.245-.608-.366-.912l.095-.056c.186.145.38.28.557.436.934.819 2.01 1.463 3.173 1.902 1.763.678 3.542 1.325 5.347 1.881 2.272.702 4.583 1.275 6.864 1.947a258.61 258.61 0 017.25 2.233c1.109.362 2.172.861 3.257 1.298.15.06.3.109.474.176.04-.6.07-1.162.119-1.725.03-.418.08-.834.152-1.247.04-.21 0-.313-.184-.425a49.847 49.847 0 00-8.316-4.183c-2.271-.873-4.554-1.725-6.86-2.496-1.91-.64-3.86-1.149-5.794-1.711-.845-.247-1.693-.488-2.543-.724a4.313 4.313 0 00-.466-.071c2.333 1.95 4.828 3.45 7.462 4.737 2.634 1.286 5.383 2.242 8.175 3.104l-.027.095c-.347-.051-.694-.1-1.04-.157a46.969 46.969 0 01-7.083-1.716 33.81 33.81 0 01-7.407-3.402 26.765 26.765 0 01-4.05-3.098A24.018 24.018 0 01.144 1.553 1.896 1.896 0 010 1.001c4.863 5.076 10.468 8.818 17.58 9.966-2.393-2.383-4.11-5.157-5.021-8.41.312.534.607 1.079.939 1.6 1.286 2.018 2.942 3.692 4.831 5.152 2.228 1.722 4.633 3.163 7.127 4.459 2.804 1.459 5.61 2.913 8.417 4.362.328.169.646.349 1.016.545l.192-.364c.255-.495.487-1.005.773-1.48.137-.228.127-.364-.066-.515-1.03-.8-2.023-1.656-3.102-2.385-1.203-.817-2.48-1.535-3.74-2.266-1.555-.902-3.13-1.77-4.69-2.662-.54-.309-1.065-.645-1.63-.932 1.483 2.328 3.374 4.296 5.425 6.126l-.089.098c-.704-.498-1.422-.982-2.112-1.493A26.5 26.5 0 0121.51 8.8c-1.393-1.627-2.525-3.414-3.26-5.424-.365-1.002-.596-2.053-.884-3.082a1.375 1.375 0 010-.291c.092.066.164.091.19.14.919 1.711 2.173 3.162 3.64 4.408 1.091.94 2.243 1.81 3.447 2.601 2.002 1.295 4.073 2.482 6.11 3.721 1.921 1.168 3.87 2.295 5.747 3.527 1.63 1.07 3.113 2.334 4.315 3.891.187.24.352.495.495.763-1.532-.475-2.928-.545-3.884 1.073.647.42 1.275.82 1.896 1.232 2.017 1.332 3.878 2.859 5.49 4.658a18.574 18.574 0 013.458 5.506.66.66 0 01.047.155c0 .07-.009.139-.024.206-.126-.12-.218-.201-.297-.29-1-1.091-2.093-2.073-3.494-2.628-.527-.209-1.074-.206-1.717.037 3.412 3.18 6.061 6.817 8.183 10.934 2.133-4.087 4.747-7.748 8.192-10.92a2.805 2.805 0 00-.494-.17c-.923-.125-1.732.198-2.431.749-.79.622-1.525 1.316-2.282 1.979-.097.085-.19.174-.285.261l-.11-.067c.286-.623.547-1.259.86-1.865 1.113-2.136 2.627-3.973 4.392-5.594a32.326 32.326 0 015.143-3.81c.139-.085.272-.18.41-.268.045-.03.093-.055.161-.094-.972-1.607-2.346-1.561-3.893-1.117.11-.205.232-.402.366-.591 1.362-1.708 3.003-3.114 4.83-4.299 1.422-.92 2.857-1.805 4.308-2.67 2-1.193 4.048-2.31 6.018-3.542 2.177-1.355 4.284-2.835 6.005-4.753.81-.904 1.45-1.963 2.167-2.944a.499.499 0 01.231-.205C84.52.31 84.5.61 84.445.9c-.053.29-.158.602-.24.902-.721 2.656-2.048 4.992-3.83 7.069-1.781 2.077-3.94 3.792-6.237 5.304-.029.018-.074.012-.16.025.985-1.004 1.96-1.963 2.892-2.953a20.085 20.085 0 002.55-3.29c-1.058.63-2.005 1.214-2.97 1.766-1.725.989-3.467 1.948-5.19 2.944-1.82 1.049-3.574 2.195-5.11 3.64-.087.084-.178.28-.138.362.329.665.693 1.316 1.052 1.984l4.119-2.138c1.91-.988 3.83-1.954 5.726-2.966 2.71-1.445 5.323-3.046 7.674-5.032a19.087 19.087 0 004.136-4.811c.219-.358.402-.73.622-1.132.067.555-.876 2.784-1.904 4.499a17.1 17.1 0 01-3.135 3.816c.964.365 6.766-1.707 9.63-3.402 2.987-1.77 5.573-4.034 7.971-6.52l.1.065c-.246.594-.479 1.2-.742 1.784a23.43 23.43 0 01-3.738 5.86 26.026 26.026 0 01-6.814 5.543 33.032 33.032 0 01-7.076 3.043 76.547 76.547 0 01-4.377 1.147 24.505 24.505 0 01-3.102.48c1.803-.654 3.637-1.234 5.4-1.98 1.788-.756 3.53-1.635 5.252-2.538a23.65 23.65 0 004.77-3.348c-.376.09-.757.168-1.129.274-1.802.513-3.611.995-5.4 1.562a204.116 204.116 0 00-6.839 2.303 54.2 54.2 0 00-7.431 3.294c-1.042.561-2.052 1.183-3.064 1.791a.404.404 0 00-.165.318c.098.981.218 1.962.338 3.011.395-.165.81-.353 1.233-.514 1.172-.446 2.34-.912 3.527-1.315 1.428-.487 2.87-.937 4.317-1.366 1.265-.375 2.547-.693 3.82-1.043 1.35-.373 2.703-.744 4.048-1.133 1.215-.352 2.441-.676 3.629-1.106 2.233-.808 4.434-1.7 6.223-3.339a.907.907 0 01.175-.052c-.15.38-.257.712-.408 1.024a14.642 14.642 0 01-3.918 4.953 19.384 19.384 0 01-4.891 2.911 28.3 28.3 0 01-5.939 1.734c-1.784.327-3.576.37-5.376.327-.367-.009-.729-.134-1.094-.205l.01-.118c.627-.077 1.254-.165 1.883-.23 2.872-.292 5.597-.993 7.918-2.82.074-.061.143-.127.208-.197.045-.057.086-.117.123-.18-.876.158-1.701.298-2.517.458a72.73 72.73 0 00-2.436.515c-1.123.264-2.255.506-3.357.841a94.791 94.791 0 00-4.596 1.547c-.894.327-1.758.727-2.626 1.115a.57.57 0 00-.26.341c-.34 1.27-.568 2.58-1.02 3.81a50.83 50.83 0 01-2.053 4.7c-1.039 2.132-2.388 4.082-3.803 5.981-.18.242-.145.436-.03.666a7.26 7.26 0 003.11 3.182c.782.422 1.64.701 2.465 1.048a.888.888 0 01.155.11l-.035.108c-.59-.115-1.197-.182-1.77-.356-2.408-.739-4.19-2.32-5.664-4.291-.056-.074-.027-.28.04-.368.577-.763 1.23-1.463 1.745-2.258a42.755 42.755 0 002.08-3.556 23.11 23.11 0 001.836-5c.184-.736.328-1.483.483-2.227a3.075 3.075 0 000-.534c-.467.261-.882.482-1.284.724-.455.273-.908.552-1.342.859-.118.084-.242.288-.224.418.23 1.715-.055 3.343-.717 4.934-.834 2.002-2.022 3.781-3.376 5.457-.808 1.002-1.673 1.963-2.511 2.939-.11.133-.219.273-.335.417 2.007 1.942 3.862 3.982 5.401 6.287a36.697 36.697 0 013.775 7.298c-1.197.327-3.684-.384-4.683-1.878.13 0 .227-.006.328 0 .102.007.22.036.329.04.967.04 1.343-.362 1.014-1.27-.328-.909-.711-1.807-1.252-2.587-1.584-2.29-3.26-4.522-4.897-6.778-.238-.327-.46-.67-.707-1.034.372-.467.745-.933 1.118-1.398a23.55 23.55 0 002.799-4.394c.554-1.137 1.051-2.301 1.27-3.547.148-.836.15-1.697.202-2.548.007-.13-.077-.265-.152-.507-.946.907-1.832 1.729-2.685 2.584A21.064 21.064 0 0053.8 37.13c-.74 1.295-1.369 2.653-2.038 3.988-.218.436.134.78.251 1.156.47 1.512 1.03 3 1.43 4.53.34 1.327.589 2.675.742 4.035.133 1.13.079 2.28.11 3.422.035 1.54-.154 3.053-.393 4.58-.479 3.042-1.45 5.925-2.692 8.723-.064.111-.133.212-.26.436zm.021-7.187c1.375-5.75 1.685-11.502 0-17.251-1.695 5.752-1.394 11.502 0 17.251zM36.697 21.994c-.051.92-.11 1.702-.127 2.485a.598.598 0 00.25.436c.876.552 1.776 1.056 2.642 1.617.72.464.704.49 1.192-.24a.18.18 0 01.024-.032c.175-.161.172-.301 0-.478-.985-.99-1.96-2-2.954-2.984-.28-.274-.613-.485-1.027-.807v.003zm28.57.11l-.153-.016a22.963 22.963 0 00-3.465 3.242c-.575.646-.559.648-.14 1.38.146.254.274.264.513.116 1.027-.638 2.067-1.254 3.095-1.889.1-.06.22-.192.22-.289-.006-.848-.043-1.696-.07-2.545z"/><path d="M43.716 22.966c.547-.286 1.08-.597 1.355-1.185a3.559 3.559 0 00.315-2.22c-.317-1.691-1.026-3.143-2.498-4.136-.962-.649-1.95-.69-2.955-.065-.1.062-.218.109-.429.207.092-.258.143-.429.212-.591.52-1.207 1.243-2.231 2.54-2.717 1.148-.431 2.276-.269 3.375.174.438.177.843.436 1.273.647.122.057.26.075.393.05 1.988-.466 3.664.194 5.106 1.493 1.12 1.01 2.158 2.11 3.218 3.185.883.894 1.767 1.79 2.909 2.352.457.226.967.346 1.453.516.124.037.24.096.342.175a7.273 7.273 0 01-3.577-.733 11.82 11.82 0 01-2.717-1.87 113.144 113.144 0 00-3.295-2.853c-.627-.516-1.165-.627-1.75-.52l.601 1.017-.072.1c-1.422-1.077-2.93-1.868-4.859-1.49l.309.47c.798 1.23 1.459 2.53 1.812 3.955.244.98.408 1.987-.057 2.957-.336.702-.925 1.09-1.703 1.158-.424.038-.85.054-1.276.082l-.025-.157z"/><path d="M50.895 33.886c-1.145-3.403-2.894-6.427-5.155-9.18.306-.248.602-.444.842-.692.611-.625.876-1.427 1.042-2.257.122-.595.185-1.2.28-1.802a1.16 1.16 0 01.132-.374c.207.936.423 1.876.2 2.828-.174.747-.447 1.471-.656 2.21a.527.527 0 00.082.389c.695.99 1.411 1.963 2.104 2.957.268.385.49.802.766 1.258 1.214-1.803 2.535-3.416 4.236-4.833-2.569-.798-4.551-2.187-5.613-4.668 1.323.982 2.718 1.817 4.256 2.405 1.537.588 3.158.872 4.924 1.028-3.155 3.177-5.874 6.547-7.44 10.731zm19.475-8.131c5.65 1.475 11.052.529 16.402-1.563-.688 1.32-3.612 4.154-6.556 5.343a16.21 16.21 0 01-8.324 1.043c1.946-.421 3.87-.897 5.721-1.98-2.63-.606-5.016-1.523-7.244-2.843zm-55.168-1.481c2.634.981 5.318 1.723 8.098 2.047 2.78.323 5.556.088 8.295-.576-2.235 1.342-4.642 2.232-7.163 2.835 0 .053-.012.11-.018.16.927.372 1.837.795 2.786 1.1.949.306 1.905.484 2.854.747-3.173.406-6.237-.008-9.114-1.417-2.318-1.124-4.204-2.8-5.738-4.896zm40.54 32.693c.256.144.503.305.766.428.604.278 1.004.109 1.037-.546.055-.794.018-1.592-.11-2.378-.469-2.555-1.284-5.016-2.152-7.462-.156-.436-.296-.887-.444-1.332l.11-.05c.266.458.563.9.795 1.375.828 1.695 1.69 3.38 2.43 5.113.48 1.13.812 2.331 1.132 3.52.276 1.006.482 2.03.617 3.063.148 1.182.18 2.378.242 3.569.018.35-.11.41-.425.237-.75-.42-1.34-1.012-1.86-1.684-.913-1.164-1.58-2.457-2.138-3.853zm-9.537-.022c-.211 1.757-3.18 5.561-4.39 5.639-.116-6.2 2.01-11.698 5.15-16.894l.11.034c-.096.297-.183.6-.29.894-.871 2.413-1.666 4.86-2.193 7.368-.19.908-.203 1.854-.242 2.791-.025.628.506.922 1.075.634.253-.127.486-.288.78-.466z"/><path d="M21.393 32.007c2.079.371 4.146.424 6.222.056 2.076-.369 4.031-1.111 5.896-2.124-1.154 1.72-2.764 2.861-4.716 3.675.909.785 1.991 1.03 3.047 1.353-1.88.239-3.734.218-5.564-.274a11.283 11.283 0 01-4.885-2.686zM68.4 29.913c1.86 1.017 3.793 1.77 5.871 2.142a16.27 16.27 0 006.276-.109c-1.17 2.04-7.073 3.736-10.412 2.997 1.046-.266 2.07-.581 2.933-1.258-.86-.52-1.751-1.002-2.567-1.573a7.24 7.24 0 01-2.102-2.2zm-1.88 8.64l3.334-.592c-.766-.732-1.472-1.343-2.1-2.027a18.555 18.555 0 01-1.714-2.247c3.072 2.198 6.478 3.635 10.143 4.61-1.63 1.246-7.298 1.365-9.663.256zm-30.664-4.86a14.778 14.778 0 01-3.756 4.168c1.088.456 2.214.464 3.307.66-1.84 1.141-7.648 1.043-9.685-.211 3.676-.983 7.084-2.399 10.134-4.617zM64.18 38.42c2.175 2.018 4.772 3.151 7.749 3.653-2.243 1.337-6.07 1.823-8.655.354 1.136-.134 2.214-.151 3.195-.763-1.153-.818-1.926-1.877-2.289-3.244zM30.076 42.1c2.908-.518 5.504-1.666 7.687-3.753-.062.925-.866 2.072-2.285 3.328.944.577 2.004.623 3.075.733-1.184 1.308-6.108 1.145-8.477-.308zm27.036-20.282c-1.506-.05-2.916-.386-4.166-1.253-.942-.654-1.924-2.052-2-2.887 1.761 1.904 3.837 3.206 6.166 4.14z"/></g><defs><clipPath id="clip0_218_9"><path fill="#fff" d="M0 0h102v68H0z"/></clipPath></defs></svg>