<svg width="33" height="47" fill="none" xmlns="http://www.w3.org/2000/svg"><path d="M31.837 19.256c.169-.93.26-1.881.26-2.832 0-2.11-.413-4.157-1.226-6.08a15.555 15.555 0 00-3.341-4.967 15.5 15.5 0 00-4.955-3.346A15.448 15.448 0 0016.51.802c-.99 0-1.984.095-2.95.282A9.268 9.268 0 009.226 0a9.157 9.157 0 00-6.523 2.709A9.193 9.193 0 000 9.248a9.27 9.27 0 001.16 4.483c-.153.885-.236 1.79-.236 2.693 0 2.109.413 4.156 1.225 6.08a15.545 15.545 0 003.338 4.966 15.501 15.501 0 004.955 3.346 15.45 15.45 0 006.064 1.229c.916 0 1.832-.083 2.731-.244A9.212 9.212 0 0023.775 33a9.14 9.14 0 006.523-2.709A9.187 9.187 0 0033 23.752a9.219 9.219 0 00-1.163-4.495zm-15.265 6.738c-5.536 0-8.012-2.73-8.012-4.773 0-1.05.772-1.782 1.836-1.782 2.368 0 1.758 3.412 6.176 3.412 2.265 0 3.515-1.233 3.515-2.494 0-.757-.371-1.6-1.865-1.969l-4.926-1.233C9.332 16.16 8.61 14.008 8.61 11.99c0-4.194 3.94-5.77 7.64-5.77 3.408 0 7.426 1.89 7.426 4.405 0 1.08-.932 1.704-1.996 1.704-2.022 0-1.65-2.804-5.723-2.804-2.021 0-3.139.918-3.139 2.23 0 1.31 1.597 1.728 2.983 2.046l3.647.811c3.993.893 5.004 3.23 5.004 5.43 0 3.404-2.612 5.952-7.88 5.952zM9.691 43.563c0-.133-.02-.25-.062-.352a.67.67 0 00-.211-.281 1.656 1.656 0 00-.414-.239 5.795 5.795 0 00-.664-.23 6.097 6.097 0 01-.762-.277 2.663 2.663 0 01-.582-.356 1.402 1.402 0 01-.371-.457 1.302 1.302 0 01-.129-.59 1.384 1.384 0 01.527-1.101c.172-.14.377-.25.614-.328.237-.079.501-.118.793-.118.427 0 .789.082 1.086.246.3.162.527.374.683.637.156.26.235.54.235.836h-.75c0-.213-.046-.402-.137-.566a.942.942 0 00-.414-.39c-.185-.097-.42-.145-.703-.145-.269 0-.49.04-.664.12a.878.878 0 00-.391.329.896.896 0 00-.125.472c0 .12.025.23.074.329a.877.877 0 00.239.27c.109.082.247.16.414.23.169.07.37.138.605.203.323.09.602.192.836.304.234.112.427.239.578.38.154.137.267.295.34.472.075.174.113.372.113.594a1.4 1.4 0 01-.14.629 1.37 1.37 0 01-.403.48 1.945 1.945 0 01-.629.309c-.242.07-.513.105-.812.105-.263 0-.522-.036-.777-.11a2.317 2.317 0 01-.692-.327 1.72 1.72 0 01-.496-.54 1.496 1.496 0 01-.184-.75h.75c0 .196.038.364.114.505a1 1 0 00.308.343c.133.091.283.16.45.203.169.042.345.063.527.063a1.8 1.8 0 00.668-.11.887.887 0 00.414-.312.807.807 0 00.144-.48zM12.027 39v6h-.726v-6h.726zm2.582 1.773l-1.843 1.973-1.032 1.07-.058-.77.738-.882 1.313-1.39h.882zM13.95 45l-1.508-2.016.375-.644L14.801 45h-.852zm2.594-.438l1.176-3.789h.773l-1.695 4.88a2.69 2.69 0 01-.156.335 1.605 1.605 0 01-.243.348c-.099.11-.218.198-.359.266-.138.07-.303.105-.496.105a2.123 2.123 0 01-.406-.063l-.004-.585c.02.002.053.005.098.007a1.162 1.162 0 00.516-.059.633.633 0 00.288-.214c.08-.099.15-.236.207-.41l.301-.82zm-.863-3.789l1.097 3.282.188.761-.52.266-1.554-4.309h.789zm4.187.813v5.039h-.726v-5.852h.664l.062.813zm2.848 1.266v.082c0 .307-.037.592-.11.855-.072.26-.18.487-.32.68a1.458 1.458 0 01-.512.449c-.203.107-.436.16-.699.16a1.77 1.77 0 01-.71-.133 1.403 1.403 0 01-.524-.386 1.975 1.975 0 01-.344-.61 3.531 3.531 0 01-.172-.8v-.438a3.68 3.68 0 01.176-.84c.086-.247.2-.458.34-.633.143-.177.316-.31.52-.402.203-.094.437-.14.703-.14.265 0 .5.051.707.156.205.101.378.247.52.437.14.19.245.418.316.684.072.263.109.556.109.879zm-.727.082v-.082c0-.211-.022-.41-.066-.594a1.5 1.5 0 00-.207-.492.986.986 0 00-.352-.336 1 1 0 00-.511-.125c-.183 0-.342.03-.477.093a1.03 1.03 0 00-.34.254 1.35 1.35 0 00-.23.36c-.058.133-.1.27-.13.414v1.011c.053.183.126.355.22.516.093.159.218.288.375.387.156.096.352.144.59.144.195 0 .363-.04.503-.12a1.02 1.02 0 00.352-.34c.094-.144.163-.308.207-.493a2.6 2.6 0 00.066-.597zm3.403 2.144a2.08 2.08 0 01-.801-.148 1.816 1.816 0 01-.613-.426c-.17-.182-.3-.398-.391-.648a2.38 2.38 0 01-.137-.82v-.165c0-.344.051-.65.153-.918.101-.27.24-.5.414-.687.174-.188.372-.33.593-.426.222-.097.45-.145.688-.145.302 0 .562.052.781.157.221.104.402.25.543.437.14.185.245.404.313.656.067.25.101.524.101.82v.325H23.88v-.59h2.433v-.055a1.785 1.785 0 00-.117-.547.984.984 0 00-.312-.437c-.143-.115-.339-.172-.586-.172a.983.983 0 00-.809.41 1.548 1.548 0 00-.23.496c-.055.196-.082.42-.082.676v.164c0 .2.027.39.082.567.057.174.14.328.246.46.11.133.24.238.394.313.157.075.334.113.532.113.255 0 .471-.052.648-.156a1.6 1.6 0 00.465-.418l.438.348c-.092.138-.208.27-.348.394a1.65 1.65 0 01-.52.305 2.01 2.01 0 01-.722.117z" fill="#F6F6F6"/></svg>