<svg width="34" height="48" fill="none" xmlns="http://www.w3.org/2000/svg"><path d="M34 16.5a16.5 16.5 0 11-33 0 16.5 16.5 0 0133 0zm-15.908-4.319c-1.605.668-4.814 2.05-9.624 4.146-.78.31-1.19.614-1.227.911-.062.502.567.7 1.423.97l.361.113c.842.274 1.976.594 2.564.607.536.012 1.132-.207 1.79-.66 4.494-3.034 6.815-4.567 6.959-4.6.103-.025.247-.053.342.033.097.085.087.248.077.291-.062.266-2.531 2.56-3.808 3.748-.398.37-.68.633-.738.693-.127.13-.256.257-.388.383-.784.755-1.37 1.32.031 2.244.675.446 1.215.81 1.753 1.178.586.4 1.172.798 1.93 1.297.193.124.378.258.558.386.682.487 1.299.924 2.056.854.441-.041.897-.454 1.128-1.691.547-2.923 1.621-9.253 1.869-11.862a2.937 2.937 0 00-.027-.65.695.695 0 00-.235-.447 1.085 1.085 0 00-.64-.192c-.618.01-1.573.342-6.154 2.248zM2.762 40.313V46H2.02v-5.688h.742zm1.828 0v.617H.195v-.617H4.59zm2.098 5.765a2.08 2.08 0 01-.801-.148 1.816 1.816 0 01-.614-.426 1.89 1.89 0 01-.39-.648 2.379 2.379 0 01-.137-.82v-.165c0-.344.05-.65.152-.918.102-.27.24-.5.415-.687.174-.188.372-.33.593-.426.222-.097.45-.145.688-.145.302 0 .562.052.781.157.221.104.402.25.543.437.14.185.245.404.312.656.068.25.102.524.102.82v.325H5.176v-.59h2.433v-.055c-.01-.187-.05-.37-.117-.547a.984.984 0 00-.312-.437c-.144-.115-.339-.172-.586-.172a.984.984 0 00-.809.41 1.527 1.527 0 00-.23.496c-.055.196-.082.42-.082.676v.164c0 .2.027.39.082.567.057.174.139.328.246.46.11.133.24.238.394.313.157.075.334.113.532.113.255 0 .47-.052.648-.156a1.6 1.6 0 00.465-.418l.437.348c-.09.138-.207.27-.347.394a1.65 1.65 0 01-.52.305 2.01 2.01 0 01-.723.117zM9.96 40v6h-.727v-6h.727zm2.914 6.078a2.08 2.08 0 01-.8-.148 1.816 1.816 0 01-.614-.426 1.86 1.86 0 01-.39-.648 2.38 2.38 0 01-.137-.82v-.165c0-.344.05-.65.152-.918.101-.27.24-.5.414-.687.175-.188.372-.33.594-.426.221-.097.45-.145.687-.145.302 0 .563.052.781.157.222.104.403.25.543.437.141.185.245.404.313.656.068.25.102.524.102.82v.325h-3.157v-.59h2.434v-.055c-.01-.187-.05-.37-.117-.547a.984.984 0 00-.313-.437c-.143-.115-.338-.172-.586-.172a.984.984 0 00-.808.41c-.1.136-.176.301-.23.496-.056.196-.083.42-.083.676v.164c0 .2.027.39.082.567.057.174.14.328.246.46.11.133.241.238.395.313.156.075.333.113.531.113.255 0 .471-.052.649-.156.177-.104.332-.243.464-.418l.438.348c-.091.138-.207.27-.348.394a1.65 1.65 0 01-.52.305 2.01 2.01 0 01-.722.117zm5.227-4.305h.656v4.137c0 .373-.076.69-.227.953a1.475 1.475 0 01-.633.598 2.003 2.003 0 01-.93.207c-.145 0-.317-.023-.515-.07a2.08 2.08 0 01-.578-.23 1.445 1.445 0 01-.473-.434l.38-.43c.176.213.361.362.554.445.195.084.388.125.578.125.23 0 .427-.043.594-.129a.899.899 0 00.387-.383c.093-.166.14-.372.14-.617v-3.242l.067-.93zm-2.91 2.16v-.081c0-.323.037-.616.113-.88a2.1 2.1 0 01.332-.683 1.49 1.49 0 011.222-.594c.266 0 .498.047.696.14.2.092.37.226.508.403.14.175.25.386.332.633.08.247.136.527.168.84v.36a3.76 3.76 0 01-.168.835 1.98 1.98 0 01-.332.633 1.39 1.39 0 01-.508.402 1.67 1.67 0 01-.703.137 1.47 1.47 0 01-.688-.16 1.566 1.566 0 01-.523-.45 2.129 2.129 0 01-.336-.679 3.09 3.09 0 01-.114-.855zm.722-.081v.082c0 .21.02.408.063.593.044.185.11.348.199.489.09.14.207.25.347.332.141.078.309.117.504.117.24 0 .438-.05.594-.153.156-.101.28-.235.371-.402.094-.166.167-.347.219-.543v-.941a1.918 1.918 0 00-.133-.414 1.277 1.277 0 00-.226-.36.981.981 0 00-.34-.254 1.128 1.128 0 00-.477-.093 1 1 0 00-.512.125.996.996 0 00-.347.336c-.089.14-.155.304-.2.492a2.695 2.695 0 00-.062.594zm4.664-1.414V46h-.723v-4.227h.704l.02.664zm1.32-.688l-.003.672a1.83 1.83 0 00-.352-.031 1.16 1.16 0 00-.441.078.915.915 0 00-.325.218 1.053 1.053 0 00-.21.336 1.58 1.58 0 00-.098.422l-.203.117c0-.255.024-.494.074-.718a1.95 1.95 0 01.238-.594 1.16 1.16 0 01.406-.406 1.141 1.141 0 01.914-.094zm3.004 3.527v-2.175a.882.882 0 00-.101-.434.665.665 0 00-.297-.29 1.076 1.076 0 00-.492-.1c-.183 0-.343.03-.48.093a.837.837 0 00-.321.246.54.54 0 00-.113.328h-.723c0-.15.04-.3.117-.449.078-.148.19-.282.336-.402a1.68 1.68 0 01.531-.29c.209-.072.44-.109.696-.109.307 0 .578.052.812.157.237.104.422.261.555.472.135.209.203.47.203.785v1.97c0 .14.012.29.035.448.026.16.064.296.113.41V46h-.753a1.35 1.35 0 01-.086-.332 2.645 2.645 0 01-.032-.39zm.125-1.84l.008.508h-.73c-.206 0-.39.017-.551.051-.162.031-.297.08-.406.145a.653.653 0 00-.336.586c0 .132.03.253.09.363.06.11.15.196.27.262a.98.98 0 00.448.093 1.22 1.22 0 00.988-.484.74.74 0 00.165-.395l.308.348a1.05 1.05 0 01-.148.363 1.735 1.735 0 01-.801.684 1.551 1.551 0 01-.617.117c-.287 0-.538-.056-.754-.168a1.29 1.29 0 01-.5-.45 1.19 1.19 0 01-.176-.636c0-.226.044-.426.133-.597a1.14 1.14 0 01.383-.434 1.82 1.82 0 01.601-.266c.235-.06.496-.09.785-.09h.84zm2.453-.824V46h-.726v-4.227h.687l.04.84zm-.148 1.114l-.336-.012c.003-.29.04-.556.113-.8.073-.248.181-.463.325-.645a1.44 1.44 0 01.535-.422c.213-.102.46-.153.742-.153.198 0 .38.029.547.086.166.055.311.142.433.262.123.12.218.273.286.46.067.188.101.415.101.68V46h-.723v-2.781c0-.222-.037-.399-.113-.532a.648.648 0 00-.312-.289 1.128 1.128 0 00-.477-.093c-.213 0-.392.037-.535.113a.904.904 0 00-.344.313 1.409 1.409 0 00-.187.456 2.56 2.56 0 00-.055.54zm2.738-.399l-.484.149c.003-.232.04-.455.113-.668a1.82 1.82 0 01.324-.57 1.54 1.54 0 01.528-.395c.208-.1.446-.149.715-.149.226 0 .427.03.601.09.177.06.326.153.445.278.123.122.215.28.278.472.062.193.094.422.094.688V46h-.727v-2.785c0-.237-.038-.42-.113-.55a.59.59 0 00-.313-.278 1.249 1.249 0 00-.476-.082c-.16 0-.3.027-.422.082a.872.872 0 00-.309.226.99.99 0 00-.191.325 1.203 1.203 0 00-.063.39z" fill="#F6F6F6"/></svg>