<svg width="33" height="48" fill="none" xmlns="http://www.w3.org/2000/svg"><path d="M28.179 4.797a16.278 16.278 0 00-5.324-3.56A16.336 16.336 0 0016.562 0C7.514 0 .141 7.338.132 16.347c0 2.886.759 5.693 2.19 8.178L0 33l8.71-2.273a16.494 16.494 0 007.852 1.99h.008c9.05 0 16.422-7.338 16.43-16.355a16.225 16.225 0 00-1.25-6.262 16.285 16.285 0 00-3.573-5.303h.002zM16.562 29.95a13.67 13.67 0 01-6.953-1.898l-.497-.297-5.167 1.349 1.38-5.018L5 23.568a13.485 13.485 0 01-2.086-7.229c0-7.478 6.126-13.58 13.655-13.58 1.794-.002 3.57.348 5.228 1.031a13.595 13.595 0 014.427 2.952 13.52 13.52 0 012.963 4.408 13.47 13.47 0 011.032 5.204c-.009 7.505-6.135 13.596-13.658 13.596zm7.49-10.177c-.408-.204-2.424-1.192-2.803-1.332-.377-.134-.653-.204-.922.204-.276.406-1.063 1.332-1.3 1.599-.236.274-.48.305-.89.103-.408-.207-1.732-.636-3.299-2.032-1.222-1.083-2.04-2.423-2.285-2.83-.236-.408-.023-.627.182-.83.18-.182.409-.48.614-.714.207-.236.275-.409.41-.681.135-.277.07-.512-.031-.716-.104-.204-.922-2.22-1.268-3.032-.332-.802-.67-.69-.922-.7-.236-.015-.512-.015-.787-.015a1.516 1.516 0 00-1.096.51c-.377.407-1.432 1.395-1.432 3.41s1.471 3.952 1.678 4.226c.203.275 2.888 4.398 7.01 6.171.973.423 1.74.673 2.338.863.984.313 1.873.266 2.582.165.787-.12 2.426-.99 2.772-1.945.34-.957.34-1.774.236-1.945-.101-.174-.377-.275-.787-.479zM11.496 45.137l1.676-4.825h.816L11.883 46H11.3l.195-.863zM9.93 40.312l1.66 4.825.207.863h-.582l-2.102-5.688h.817zm5.5 1.461V46h-.727v-4.227h.727zm-.782-1.12c0-.118.036-.217.106-.297.073-.081.18-.122.32-.122.138 0 .244.04.317.121.075.081.113.18.113.297a.409.409 0 01-.113.29c-.073.078-.179.117-.317.117-.14 0-.247-.04-.32-.118a.426.426 0 01-.106-.289zM16.586 40h.727v5.18l-.063.82h-.664v-6zm3.582 3.852v.082c0 .307-.037.592-.11.855-.072.26-.18.487-.32.68-.14.192-.312.342-.515.449-.203.107-.436.16-.7.16-.268 0-.503-.045-.707-.137a1.39 1.39 0 01-.507-.402 2.08 2.08 0 01-.332-.633 3.978 3.978 0 01-.168-.836v-.36c.03-.312.087-.592.168-.839a2.08 2.08 0 01.332-.633c.138-.177.307-.31.507-.402.2-.094.434-.14.7-.14.265 0 .5.051.707.156.205.101.377.247.515.437.14.19.248.418.32.684.073.263.11.556.11.879zm-.727.082v-.082c0-.211-.02-.41-.058-.594a1.537 1.537 0 00-.188-.492.933.933 0 00-.34-.336 1.004 1.004 0 00-.52-.125c-.181 0-.34.03-.476.093a1.032 1.032 0 00-.34.254 1.35 1.35 0 00-.23.36c-.057.133-.1.27-.129.414v.941c.042.183.11.358.203.528.097.166.224.303.383.41.162.106.36.16.598.16a1 1 0 00.5-.117.944.944 0 00.34-.332c.088-.141.153-.304.195-.489.042-.185.062-.383.062-.593zm3.395 2.144a2.08 2.08 0 01-.8-.148 1.816 1.816 0 01-.614-.426 1.86 1.86 0 01-.39-.648 2.38 2.38 0 01-.137-.82v-.165c0-.344.05-.65.152-.918.101-.27.24-.5.414-.687a1.753 1.753 0 011.281-.571c.302 0 .563.052.781.157.222.104.403.25.543.437.141.185.245.404.313.656.068.25.101.524.101.82v.325h-3.156v-.59h2.434v-.055c-.01-.187-.05-.37-.117-.547a.983.983 0 00-.313-.437c-.143-.115-.338-.172-.586-.172a.983.983 0 00-.808.41c-.1.136-.176.301-.23.496-.056.196-.083.42-.083.676v.164c0 .2.027.39.082.567.057.174.14.328.246.46.11.133.241.238.395.313.156.075.333.113.531.113.255 0 .471-.052.648-.156.178-.104.332-.243.465-.418l.438.348c-.091.138-.207.27-.348.394a1.65 1.65 0 01-.52.305 2.01 2.01 0 01-.722.117zm3.21-3.64V46h-.722v-4.227h.703l.02.664zm1.321-.688l-.004.672a1.83 1.83 0 00-.352-.031c-.166 0-.313.026-.44.078a.914.914 0 00-.325.218 1.051 1.051 0 00-.21.336 1.62 1.62 0 00-.099.422l-.203.117c0-.255.025-.494.075-.718a1.95 1.95 0 01.238-.594 1.16 1.16 0 01.406-.406 1.142 1.142 0 01.914-.094z" fill="#F6F6F6"/></svg>