<svg width="37" height="48" fill="none" xmlns="http://www.w3.org/2000/svg"><path d="M15.63 0C12.838.04 6.836.502 3.48 3.598.99 6.106.112 9.77.02 14.317c-.09 4.543-.21 13.065 7.956 15.375h.004l-.006 3.524s-.054 1.425.885 1.716c1.126.353 1.789-.729 2.87-1.899a88.9 88.9 0 002.026-2.304c5.582.476 9.876-.607 10.366-.765 1.126-.368 7.505-1.19 8.543-9.709 1.073-8.78-.522-14.336-3.393-16.838C28.407 2.615 24.913.063 17.13.029c0 0-.573-.036-1.504-.025L15.631 0zm.085 2.469c.79-.006 1.276.025 1.276.025 6.585.029 9.739 2.024 10.47 2.692 2.43 2.093 3.67 7.1 2.764 14.433v.003c-.875 7.114-6.051 7.56-7.005 7.868-.406.131-4.179 1.075-8.921.764 0 0-3.532 4.288-4.636 5.402-.174.175-.377.244-.51.21-.189-.048-.24-.274-.24-.604l.03-5.86C2.038 25.479 2.44 18.228 2.52 14.43c.078-3.797.787-6.91 2.894-9.002 2.841-2.586 7.936-2.943 10.308-2.96l-.007.001zm.551 3.795a.44.44 0 00-.419.44.445.445 0 00.413.445c2.355.014 4.271.783 5.84 2.322 1.556 1.525 2.35 3.599 2.368 6.32a.444.444 0 00.445.438.44.44 0 00.435-.444c-.02-2.893-.896-5.244-2.633-6.947-1.725-1.692-3.903-2.557-6.448-2.574h-.001zm-5.742 1.013a1.415 1.415 0 00-.893.17l-.014.004c-.624.36-1.183.82-1.662 1.359-.003.006-.008.006-.011.012-.387.47-.61.93-.667 1.382a.874.874 0 00-.01.204c0 .199.031.394.094.584l.019.014c.195.7.685 1.861 1.747 3.798a22.635 22.635 0 002.096 3.188c.392.502.812.981 1.262 1.435l.191.192c.45.45.928.875 1.427 1.27a22.496 22.496 0 003.17 2.11c1.925 1.068 3.082 1.56 3.775 1.758l.014.02c.252.083.52.11.783.08.45-.052.91-.276 1.375-.67.005 0 .004-.003.011-.007.537-.482.99-1.05 1.349-1.675l.004-.014c.326-.63.217-1.228-.261-1.633-.006 0-1.012-.846-1.504-1.21a19.33 19.33 0 00-1.613-1.036c-.74-.416-1.497-.155-1.81.253l-.648.823c-.333.413-.952.359-.952.359-4.524-1.161-5.735-5.768-5.735-5.768s-.053-.621.36-.957l.816-.653c.402-.314.661-1.075.247-1.82a18.578 18.578 0 00-1.03-1.626c-.39-.513-.79-1.016-1.203-1.51a1.19 1.19 0 00-.728-.433l.001-.003zm6.51 1.284a.438.438 0 00-.452.428.444.444 0 00.426.455c1.682.124 2.925.68 3.835 1.677.914 1.004 1.349 2.223 1.314 3.748a.448.448 0 00.433.421.442.442 0 00.451-.402c.037-1.713-.484-3.198-1.547-4.366-1.073-1.181-2.576-1.827-4.422-1.963h-.035l-.003.002zm.672 2.377a.44.44 0 00-.435.418.445.445 0 00.417.467c.759.04 1.269.255 1.614.615.348.358.563.905.603 1.698a.444.444 0 00.459.383.44.44 0 00.418-.427c-.043-.939-.311-1.718-.84-2.27-.533-.552-1.295-.838-2.204-.886h-.026l-.006.002zM2.156 44.281l1.13-3.968h.546l-.316 1.542L2.3 46h-.543l.398-1.719zM.988 40.313l.899 3.89.27 1.797h-.54L.238 40.312h.75zm4.305 3.886l.879-3.886h.754L5.55 46h-.54l.282-1.8zm-1.379-3.886l1.098 3.968L5.41 46h-.543l-1.172-4.145-.32-1.542h.54zM8.375 40v6h-.723v-6h.723zm-.172 3.727l-.3-.012c.002-.29.045-.556.128-.8.084-.248.2-.463.352-.645a1.565 1.565 0 011.238-.575c.208 0 .396.029.563.086.166.055.308.144.425.266.12.122.211.281.274.476.062.193.094.429.094.707V46h-.727v-2.777a1.22 1.22 0 00-.098-.532.6.6 0 00-.285-.293 1.024 1.024 0 00-.46-.093c-.18 0-.345.037-.493.113a1.17 1.17 0 00-.379.313 1.572 1.572 0 00-.332.996zm6.348 1.55v-2.175a.882.882 0 00-.102-.434.664.664 0 00-.297-.29 1.076 1.076 0 00-.492-.1c-.182 0-.342.03-.48.093a.836.836 0 00-.32.246.54.54 0 00-.114.328h-.723c0-.15.04-.3.118-.449.078-.148.19-.282.336-.402a1.68 1.68 0 01.53-.29c.21-.072.44-.109.696-.109.307 0 .578.052.813.157.237.104.421.261.554.472.136.209.203.47.203.785v1.97c0 .14.012.29.036.448.026.16.063.296.113.41V46h-.754a1.35 1.35 0 01-.086-.332c-.02-.14-.031-.27-.031-.39zm.125-1.84l.008.508h-.73c-.207 0-.39.017-.552.051-.161.031-.296.08-.406.145a.653.653 0 00-.336.586c0 .132.03.253.09.363.06.11.15.196.27.262a.98.98 0 00.449.093 1.218 1.218 0 00.988-.484.74.74 0 00.164-.395l.309.348c-.018.11-.068.23-.149.363a1.735 1.735 0 01-.8.684 1.552 1.552 0 01-.618.117 1.62 1.62 0 01-.754-.168 1.289 1.289 0 01-.5-.45 1.189 1.189 0 01-.175-.636c0-.226.044-.426.132-.597.089-.175.217-.32.383-.434.167-.117.367-.206.602-.266.234-.06.496-.09.785-.09h.84zm3.504-1.664v.555h-2.285v-.555h2.285zm-1.512-1.027h.723v4.207c0 .143.022.251.066.324a.318.318 0 00.172.145c.07.023.146.035.226.035.06 0 .123-.005.188-.016l.152-.03.004.589a1.69 1.69 0 01-.226.05 1.727 1.727 0 01-.332.028c-.177 0-.34-.035-.489-.105a.786.786 0 01-.355-.352c-.086-.167-.129-.39-.129-.672v-4.203zm4.82 4.133a.61.61 0 00-.07-.29c-.044-.09-.137-.172-.277-.245-.138-.076-.347-.14-.625-.196a4.938 4.938 0 01-.637-.175 1.936 1.936 0 01-.48-.246 1.04 1.04 0 01-.301-.34.946.946 0 01-.106-.457c0-.167.037-.325.11-.473.075-.148.18-.28.316-.395.138-.114.303-.204.496-.269.193-.065.408-.098.645-.098.338 0 .627.06.867.18s.423.28.55.48c.128.198.192.418.192.66h-.723a.62.62 0 00-.105-.34.779.779 0 00-.3-.277.971.971 0 00-.481-.109c-.2 0-.364.031-.489.094a.627.627 0 00-.27.23.58.58 0 00-.042.508c.029.06.078.116.148.168.07.05.17.096.297.14.128.045.29.09.488.133.347.079.632.172.856.282.224.11.39.243.5.402.11.159.164.352.164.578a1.126 1.126 0 01-.45.906c-.143.11-.314.196-.515.258-.198.06-.42.09-.668.09-.372 0-.687-.066-.945-.2a1.462 1.462 0 01-.586-.515 1.234 1.234 0 01-.2-.668h.727c.01.198.068.356.172.473a.877.877 0 00.383.246c.15.047.3.07.45.07.197 0 .362-.026.495-.078a.69.69 0 00.309-.215.498.498 0 00.105-.312zm3.887-4.063L23.492 46h-.77l2.169-5.688h.496l-.012.504zM26.953 46l-1.887-5.184-.011-.504h.496L27.727 46h-.774zm-.098-2.105v.617H23.66v-.617h3.195zm2.247-1.31v5.04h-.727v-5.852h.664l.063.813zm2.847 1.267v.082c0 .307-.036.592-.11.855-.072.26-.179.487-.32.68a1.458 1.458 0 01-.511.449c-.203.107-.436.16-.7.16a1.77 1.77 0 01-.71-.133 1.4 1.4 0 01-.524-.386 1.975 1.975 0 01-.344-.61 3.52 3.52 0 01-.171-.8v-.438c.03-.313.09-.593.175-.84.086-.247.2-.458.34-.633.143-.177.317-.31.52-.402.203-.094.437-.14.703-.14.265 0 .501.051.707.156.206.101.379.247.52.437.14.19.245.418.316.684.073.263.11.556.11.879zm-.726.082v-.082c0-.211-.022-.41-.067-.594a1.498 1.498 0 00-.207-.492.986.986 0 00-.351-.336 1 1 0 00-.512-.125c-.182 0-.341.03-.477.093a1.032 1.032 0 00-.34.254 1.35 1.35 0 00-.23.36c-.057.133-.1.27-.129.414v1.011c.052.183.125.355.219.516.094.159.219.288.375.387.156.096.353.144.59.144.195 0 .363-.04.504-.12a1.02 1.02 0 00.351-.34c.094-.144.163-.308.207-.493.045-.187.067-.386.067-.597zm2.37-1.348v5.039h-.726v-5.852h.664l.063.813zm2.848 1.266v.082c0 .307-.036.592-.109.855-.073.26-.18.487-.32.68a1.458 1.458 0 01-.512.449c-.203.107-.436.16-.7.16-.267 0-.504-.044-.71-.133a1.401 1.401 0 01-.524-.386 1.975 1.975 0 01-.343-.61 3.52 3.52 0 01-.172-.8v-.438c.031-.313.09-.593.176-.84s.199-.458.34-.633c.143-.177.316-.31.519-.402.203-.094.437-.14.703-.14.266 0 .501.051.707.156.206.101.379.247.52.437.14.19.246.418.316.684.073.263.11.556.11.879zm-.726.082v-.082c0-.211-.022-.41-.067-.594a1.498 1.498 0 00-.207-.492.985.985 0 00-.351-.336 1 1 0 00-.512-.125c-.182 0-.341.03-.476.093a1.032 1.032 0 00-.34.254 1.35 1.35 0 00-.23.36c-.058.133-.101.27-.13.414v1.011c.052.183.125.355.22.516.093.159.218.288.374.387.156.096.353.144.59.144.195 0 .363-.04.504-.12a1.02 1.02 0 00.351-.34c.094-.144.163-.308.207-.493.045-.187.067-.386.067-.597z" fill="#F6F6F6"/></svg>